<svg xmlns="http://www.w3.org/2000/svg" version="1.1" xmlns:xlink="http://www.w3.org/1999/xlink" xmlns:svgjs="http://svgjs.dev/svgjs" width="2000" height="2000" viewBox="0 0 2000 2000"><g transform="matrix(1,0,0,1,0,0)"><svg viewBox="0 0 280 280" data-background-color="#ffffff" preserveAspectRatio="xMidYMid meet" height="2000" width="2000" xmlns="http://www.w3.org/2000/svg" xmlns:xlink="http://www.w3.org/1999/xlink"><g id="tight-bounds" transform="matrix(1,0,0,1,0,0)"><svg viewBox="0 0 280 280" height="280" width="280"><g><svg viewBox="0 0 280 280" height="280" width="280"><g transform="matrix(1,0,0,1,60.80404050710668,111.34395277198183)"><svg viewBox="0 0 158.39191898578665 57.31209445603635" height="57.31209445603635" width="158.39191898578665"><g><svg viewBox="0 0 158.39191898578665 57.31209445603635" height="57.31209445603635" width="158.39191898578665"><g transform="matrix(1,0,0,1,0,39.54516553754708)"><svg viewBox="0 0 158.39191898578665 17.766928918489274" height="17.766928918489274" width="158.39191898578665"><g id="textblocktransform"><svg viewBox="0 0 158.39191898578665 17.766928918489274" height="17.766928918489274" width="158.39191898578665" id="textblock"><g><rect width="30.25285652628525" height="0.9765883929590352" y="15.088027106625768" fill="#0074d9" data-fill-palette-color="tertiary"></rect><rect width="30.25285652628525" height="0.9765883929590352" y="15.088027106625768" x="128.1390624595014" fill="#0074d9" data-fill-palette-color="tertiary"></rect></g><g><svg viewBox="0 0 158.39191898578665 10.829199570027487" height="10.829199570027487" width="158.39191898578665"><g transform="matrix(1,0,0,1,0,0)"><svg width="158.39191898578665" viewBox="6.5 -35.7 532.36 36.400000000000006" height="10.829199570027487" data-palette-color="#0074d9"><path d="M21.9 0L6.5 0 6.5-35 21.75-35 21.75-32.55 13-33.7Q10.7-34 9.9-34L9.9-34 9.9-18.75Q10.55-18.75 13-18.9L13-18.9 21.2-19.4 21.2-17.1 13-17.6Q10.55-17.75 9.9-17.75L9.9-17.75 9.9-1Q10.8-1 13.05-1.3L13.05-1.3 21.9-2.45 21.9 0ZM43.4 0L32.4 0 32.4-35 43.4-35Q49.2-35 53.5-32.8 57.8-30.6 60.2-26.68 62.6-22.75 62.6-17.5L62.6-17.5Q62.6-12.25 60.2-8.33 57.8-4.4 53.5-2.2 49.2 0 43.4 0L43.4 0ZM43.4-33.8L43.4-33.8 35.8-33.8 35.8-1.2 43.4-1.2Q50.65-1.2 54.72-5.5 58.8-9.8 58.8-17.5L58.8-17.5Q58.8-25.2 54.72-29.5 50.65-33.8 43.4-33.8ZM72.59-14L72.59-35 76-35 76-13.9Q76-7.85 78.97-4.48 81.94-1.1 87.34-1.1L87.34-1.1Q90.75-1.1 93.27-2.43 95.8-3.75 97.17-6.1 98.55-8.45 98.44-11.5L98.44-11.5 97.59-35 101-35 100.15-11.5Q99.94-5.5 96.57-2.4 93.19 0.7 86.94 0.7L86.94 0.7Q80.19 0.7 76.39-3.23 72.59-7.15 72.59-14L72.59-14ZM140.59-4.3L140.89-4.3 140.59-1.25Q139.19-0.65 137.19-0.2 135.19 0.25 133.14 0.48 131.09 0.7 129.49 0.7L129.49 0.7Q125.44 0.7 121.99-0.68 118.54-2.05 115.97-4.5 113.39-6.95 111.94-10.28 110.49-13.6 110.49-17.5L110.49-17.5Q110.49-21.4 111.94-24.73 113.39-28.05 115.97-30.5 118.54-32.95 121.99-34.33 125.44-35.7 129.49-35.7L129.49-35.7Q131.14-35.7 133.19-35.45 135.24-35.2 137.19-34.77 139.14-34.35 140.49-33.8L140.49-33.8 140.24-31 139.94-31Q138.09-32.7 135.29-33.6 132.49-34.5 129.49-34.5L129.49-34.5Q124.99-34.5 121.57-32.38 118.14-30.25 116.22-26.43 114.29-22.6 114.29-17.5L114.29-17.5Q114.29-12.35 116.22-8.55 118.14-4.75 121.54-2.63 124.94-0.5 129.49-0.5L129.49-0.5Q132.89-0.5 135.82-1.6 138.74-2.7 140.59-4.3L140.59-4.3ZM149.34 0L145.69 0 159.14-35 162.24-35 175.69 0 172.04 0 165.84-16.4 154.49-16.4 149.34 0ZM159.79-32.4L159.49-32.4 154.84-17.6 165.39-17.6 159.79-32.4ZM192.19 0L188.79 0 188.79-34Q188.04-34 185.69-33.7L185.69-33.7 175.89-32.45 175.89-35 205.09-35 205.09-32.45 195.29-33.7Q192.94-34 192.19-34L192.19-34 192.19 0ZM216.59 0L213.19 0 213.19-35 216.59-35 216.59 0ZM227.08-17.5L227.08-17.5Q227.08-21.35 228.46-24.68 229.83-28 232.31-30.48 234.78-32.95 238.11-34.33 241.43-35.7 245.28-35.7L245.28-35.7Q249.13-35.7 252.46-34.33 255.78-32.95 258.26-30.48 260.73-28 262.11-24.68 263.48-21.35 263.48-17.5L263.48-17.5Q263.48-13.65 262.11-10.33 260.73-7 258.26-4.53 255.78-2.05 252.46-0.68 249.13 0.7 245.28 0.7L245.28 0.7Q241.43 0.7 238.11-0.68 234.78-2.05 232.31-4.53 229.83-7 228.46-10.33 227.08-13.65 227.08-17.5ZM230.88-17.5L230.88-17.5Q230.88-12.4 232.68-8.58 234.48-4.75 237.73-2.63 240.98-0.5 245.28-0.5L245.28-0.5Q249.58-0.5 252.83-2.63 256.08-4.75 257.88-8.6 259.68-12.45 259.68-17.5L259.68-17.5Q259.68-22.55 257.88-26.38 256.08-30.2 252.83-32.35 249.58-34.5 245.28-34.5L245.28-34.5Q240.98-34.5 237.76-32.38 234.53-30.25 232.71-26.43 230.88-22.6 230.88-17.5ZM276.63 0L273.23 0 274.48-35.7 275.08-35.7 300.23-5.3 300.53-5.3 299.43-35 302.83-35 301.58 0.7 300.98 0.7 275.83-29.7 275.53-29.7 276.63 0ZM356.18-4.3L356.48-4.3 356.18-1.25Q354.78-0.65 352.78-0.2 350.78 0.25 348.73 0.48 346.68 0.7 345.08 0.7L345.08 0.7Q341.03 0.7 337.58-0.68 334.13-2.05 331.55-4.5 328.98-6.95 327.53-10.28 326.08-13.6 326.08-17.5L326.08-17.5Q326.08-21.4 327.53-24.73 328.98-28.05 331.55-30.5 334.13-32.95 337.58-34.33 341.03-35.7 345.08-35.7L345.08-35.7Q346.73-35.7 348.78-35.45 350.83-35.2 352.78-34.77 354.73-34.35 356.08-33.8L356.08-33.8 355.83-31 355.53-31Q353.68-32.7 350.88-33.6 348.08-34.5 345.08-34.5L345.08-34.5Q340.58-34.5 337.15-32.38 333.73-30.25 331.8-26.43 329.88-22.6 329.88-17.5L329.88-17.5Q329.88-12.35 331.8-8.55 333.73-4.75 337.13-2.63 340.53-0.5 345.08-0.5L345.08-0.5Q348.48-0.5 351.4-1.6 354.33-2.7 356.18-4.3L356.18-4.3ZM362.97-17.5L362.97-17.5Q362.97-21.35 364.35-24.68 365.72-28 368.2-30.48 370.67-32.95 374-34.33 377.32-35.7 381.17-35.7L381.17-35.7Q385.02-35.7 388.35-34.33 391.67-32.95 394.15-30.48 396.62-28 398-24.68 399.37-21.35 399.37-17.5L399.37-17.5Q399.37-13.65 398-10.33 396.62-7 394.15-4.53 391.67-2.05 388.35-0.68 385.02 0.7 381.17 0.7L381.17 0.7Q377.32 0.7 374-0.68 370.67-2.05 368.2-4.53 365.72-7 364.35-10.33 362.97-13.65 362.97-17.5ZM366.77-17.5L366.77-17.5Q366.77-12.4 368.57-8.58 370.37-4.75 373.62-2.63 376.87-0.5 381.17-0.5L381.17-0.5Q385.47-0.5 388.72-2.63 391.97-4.75 393.77-8.6 395.57-12.45 395.57-17.5L395.57-17.5Q395.57-22.55 393.77-26.38 391.97-30.2 388.72-32.35 385.47-34.5 381.17-34.5L381.17-34.5Q376.87-34.5 373.65-32.38 370.42-30.25 368.6-26.43 366.77-22.6 366.77-17.5ZM409.87 0L409.87-35 413.27-35 413.27-1Q414.22-1 416.27-1.3L416.27-1.3 424.57-2.55 424.57 0 409.87 0ZM432.92 0L432.92-35 436.32-35 436.32-1Q437.27-1 439.32-1.3L439.32-1.3 447.62-2.55 447.62 0 432.92 0ZM471.37 0L455.97 0 455.97-35 471.22-35 471.22-32.55 462.47-33.7Q460.17-34 459.37-34L459.37-34 459.37-18.75Q460.02-18.75 462.47-18.9L462.47-18.9 470.67-19.4 470.67-17.1 462.47-17.6Q460.02-17.75 459.37-17.75L459.37-17.75 459.37-1Q460.27-1 462.52-1.3L462.52-1.3 471.37-2.45 471.37 0ZM508.56-16.6L499.31-16.6 499.31-17.8 511.96-17.8 511.96-4.2Q509.66-1.9 506.34-0.6 503.01 0.7 498.91 0.7L498.91 0.7Q494.71 0.7 491.16-0.68 487.61-2.05 484.96-4.53 482.31-7 480.84-10.3 479.36-13.6 479.36-17.5L479.36-17.5Q479.36-21.4 480.84-24.7 482.31-28 484.96-30.48 487.61-32.95 491.16-34.33 494.71-35.7 498.91-35.7L498.91-35.7Q500.71-35.7 502.84-35.45 504.96-35.2 506.91-34.77 508.86-34.35 510.21-33.75L510.21-33.75 509.96-30.95 509.66-30.95Q507.66-32.7 504.86-33.6 502.06-34.5 498.91-34.5L498.91-34.5Q494.21-34.5 490.66-32.38 487.11-30.25 485.14-26.43 483.16-22.6 483.16-17.5L483.16-17.5Q483.16-12.4 485.14-8.58 487.11-4.75 490.66-2.63 494.21-0.5 498.91-0.5L498.91-0.5Q501.81-0.5 504.29-1.3 506.76-2.1 508.56-3.6L508.56-3.6 508.56-16.6ZM538.86 0L523.46 0 523.46-35 538.71-35 538.71-32.55 529.96-33.7Q527.66-34 526.86-34L526.86-34 526.86-18.75Q527.51-18.75 529.96-18.9L529.96-18.9 538.16-19.4 538.16-17.1 529.96-17.6Q527.51-17.75 526.86-17.75L526.86-17.75 526.86-1Q527.76-1 530.01-1.3L530.01-1.3 538.86-2.45 538.86 0Z" opacity="1" transform="matrix(1,0,0,1,0,0)" fill="#0074d9" class="wordmark-text-0" data-fill-palette-color="primary" id="text-0"></path></svg></g></svg></g><g transform="matrix(1,0,0,1,30.25285652628525,13.385713687721296)"><svg viewBox="0 0 97.88620593321615 4.381215230767978" height="4.381215230767978" width="97.88620593321615"><g transform="matrix(1,0,0,1,8,0)"><svg width="81.88620593321615" viewBox="1.9383335333419998 -36.95 880.221666466658 47.1" height="4.381215230767978" data-palette-color="#0074d9"><path d="M13.85 0.3L13.85 0.3Q10.7 0.3 8.43-0.98 6.15-2.25 4.67-4.48 3.2-6.7 2.53-9.53 1.85-12.35 1.95-15.4L1.95-15.4Q2.15-20.85 3.95-24.8 5.75-28.75 8.5-31.3 11.25-33.85 14.43-35.08 17.6-36.3 20.55-36.3L20.55-36.3Q23.05-36.3 25.08-35.48 27.1-34.65 28.3-33.08 29.5-31.5 29.5-29.25L29.5-29.25Q29.5-27.5 28.48-25.88 27.45-24.25 25.38-23.23 23.3-22.2 20.05-22.2L20.05-22.2Q20.6-23.8 20.85-25 21.1-26.2 21.1-27.05L21.1-27.05Q21.1-28.8 20.3-29.43 19.5-30.05 18.3-30.05L18.3-30.05Q16.85-30.05 15.55-29 14.25-27.95 13.23-26.18 12.2-24.4 11.6-22.25 11-20.1 10.9-17.9L10.9-17.9Q10.7-12.35 12.5-9.5 14.3-6.65 17.15-6.65L17.15-6.65Q19.35-6.65 22.03-8.45 24.7-10.25 27.3-13.9L27.3-13.9 27.95-13.6Q27.3-9.1 25.1-6 22.9-2.9 19.93-1.3 16.95 0.3 13.85 0.3ZM42.35 0.35L42.35 0.35Q38.6 0.35 36.15-1.15 33.7-2.65 32.52-5.13 31.35-7.6 31.35-10.4L31.35-10.4Q31.35-13.05 32.32-15.7 33.3-18.35 35.17-20.53 37.05-22.7 39.75-24.03 42.45-25.35 45.95-25.35L45.95-25.35Q49.7-25.35 52.12-23.83 54.55-22.3 55.72-19.8 56.9-17.3 56.9-14.45L56.9-14.45Q56.9-11.85 55.95-9.22 55-6.6 53.12-4.42 51.25-2.25 48.55-0.95 45.85 0.35 42.35 0.35ZM43.7-3.9L43.7-3.9Q45.05-3.9 45.95-5.3 46.85-6.7 47.3-8.88 47.75-11.05 47.75-13.3L47.75-13.3Q47.75-15.3 47.37-17.07 47-18.85 46.25-19.98 45.5-21.1 44.3-21.1L44.3-21.1Q43-21.1 42.07-19.7 41.15-18.3 40.7-16.15 40.25-14 40.25-11.7L40.25-11.7Q40.25-9.7 40.62-7.93 41-6.15 41.75-5.03 42.5-3.9 43.7-3.9ZM65.5 0.2L65.5 0.2Q64.14 0.2 62.87-0.48 61.59-1.15 60.8-2.65 60-4.15 60-6.5L60-6.5Q60-8.6 60.57-11.43 61.15-14.25 61.87-17.3 62.59-20.35 63.15-23.25 63.7-26.15 63.65-28.4L63.65-28.4Q63.65-30.55 63.15-31.45L63.15-31.45 63.09-31.6Q63.65-33.2 65.05-34.1 66.45-35 68-35L68-35Q69.75-35 71.12-33.68 72.5-32.35 72.5-29.25L72.5-29.25Q72.5-27.6 72.09-25.33 71.7-23.05 71.15-20.48 70.59-17.9 70.02-15.4 69.45-12.9 69.05-10.8 68.65-8.7 68.65-7.35L68.65-7.35Q68.65-5.95 69.05-5.43 69.45-4.9 69.95-4.9L69.95-4.9Q70.5-4.9 71-5.33 71.5-5.75 71.65-6.1L71.65-6.1 72.05-6Q72-4.2 71.02-2.8 70.05-1.4 68.57-0.6 67.09 0.2 65.5 0.2ZM80.79 0.2L80.79 0.2Q79.44 0.2 78.17-0.48 76.89-1.15 76.09-2.65 75.29-4.15 75.29-6.5L75.29-6.5Q75.29-8.6 75.87-11.43 76.44-14.25 77.17-17.3 77.89-20.35 78.44-23.25 78.99-26.15 78.94-28.4L78.94-28.4Q78.94-30.55 78.44-31.45L78.44-31.45 78.39-31.6Q78.94-33.2 80.34-34.1 81.74-35 83.29-35L83.29-35Q85.04-35 86.42-33.68 87.79-32.35 87.79-29.25L87.79-29.25Q87.79-27.6 87.39-25.33 86.99-23.05 86.44-20.48 85.89-17.9 85.32-15.4 84.74-12.9 84.34-10.8 83.94-8.7 83.94-7.35L83.94-7.35Q83.94-5.95 84.34-5.43 84.74-4.9 85.24-4.9L85.24-4.9Q85.79-4.9 86.29-5.33 86.79-5.75 86.94-6.1L86.94-6.1 87.34-6Q87.29-4.2 86.32-2.8 85.34-1.4 83.87-0.6 82.39 0.2 80.79 0.2ZM101.14 0.35L101.14 0.35Q97.49 0.35 95.09-1.13 92.69-2.6 91.49-5.03 90.29-7.45 90.29-10.25L90.29-10.25Q90.29-12.9 91.31-15.58 92.34-18.25 94.31-20.45 96.29-22.65 99.12-24 101.94-25.35 105.49-25.35L105.49-25.35Q109.89-25.35 111.92-23.38 113.94-21.4 113.94-18.6L113.94-18.6Q113.94-16.2 112.67-14.18 111.39-12.15 109.29-10.93 107.19-9.7 104.69-9.7L104.69-9.7Q103.39-9.7 102.04-10.1 100.69-10.5 99.39-11.35L99.39-11.35Q99.64-8.25 101.19-6.85 102.74-5.45 104.89-5.45L104.89-5.45Q106.39-5.45 107.89-6.03 109.39-6.6 110.67-7.53 111.94-8.45 112.64-9.5L112.64-9.5 112.99-9.25Q112.99-6.65 111.92-4.83 110.84-3 109.09-1.85 107.34-0.7 105.27-0.18 103.19 0.35 101.14 0.35ZM102.29-13.15L102.29-13.15Q103.89-13.15 104.89-14.08 105.89-15 106.39-16.25 106.89-17.5 106.89-18.45L106.89-18.45Q106.89-19.6 106.24-20.38 105.59-21.15 104.44-21.15L104.44-21.15Q103.54-21.15 102.47-20.5 101.39-19.85 100.54-18.28 99.69-16.7 99.44-13.9L99.44-13.9Q101.04-13.15 102.29-13.15ZM128.59 10L128.59 10Q126.14 10 124.54 8.55 122.94 7.1 122.94 4.45L122.94 4.45Q122.94 1.6 124.94-2.25L124.94-2.25Q124.59-2.15 124.24-2.1 123.89-2.05 123.54-2.05L123.54-2.05Q120.64-2.05 118.66-4.58 116.69-7.1 116.69-11.6L116.69-11.6Q116.69-15.65 118.26-18.75 119.84-21.85 122.29-23.6 124.74-25.35 127.39-25.35L127.39-25.35Q129.24-25.35 130.74-24.43 132.24-23.5 133.19-21.45L133.19-21.45Q133.24-21.95 133.24-22.35 133.24-22.75 133.24-23.1L133.24-23.1Q133.24-23.95 134.54-24.5 135.84-25.05 137.44-25.05L137.44-25.05Q138.89-25.05 140.14-24.5 141.39-23.95 141.79-22.65L141.79-22.65 141.89-22.35Q141.44-21.95 141.11-19.75 140.79-17.55 140.34-13.65L140.34-13.65Q140.04-11.2 139.59-8.08 139.14-4.95 138.36-1.78 137.59 1.4 136.34 4.08 135.09 6.75 133.19 8.38 131.29 10 128.59 10ZM126.94-7.8L126.94-7.8Q128.39-7.8 130.16-10.18 131.94-12.55 132.99-17L132.99-17Q132.09-18.95 131.16-19.78 130.24-20.6 129.29-20.6L129.29-20.6Q128.04-20.6 126.94-19.35 125.84-18.1 125.16-16.18 124.49-14.25 124.49-12.2L124.49-12.2Q124.49-10.1 125.19-8.95 125.89-7.8 126.94-7.8ZM126.34 4.25L126.34 4.25Q128.04 4.25 129.81 0.93 131.59-2.4 132.29-8.45L132.29-8.45Q128.49-3.3 127.01-0.53 125.54 2.25 125.54 3.4L125.54 3.4Q125.54 4.25 126.34 4.25ZM155.03 0.35L155.03 0.35Q151.38 0.35 148.98-1.13 146.59-2.6 145.38-5.03 144.19-7.45 144.19-10.25L144.19-10.25Q144.19-12.9 145.21-15.58 146.23-18.25 148.21-20.45 150.19-22.65 153.01-24 155.84-25.35 159.38-25.35L159.38-25.35Q163.78-25.35 165.81-23.38 167.84-21.4 167.84-18.6L167.84-18.6Q167.84-16.2 166.56-14.18 165.28-12.15 163.19-10.93 161.09-9.7 158.59-9.7L158.59-9.7Q157.28-9.7 155.94-10.1 154.59-10.5 153.28-11.35L153.28-11.35Q153.53-8.25 155.09-6.85 156.63-5.45 158.78-5.45L158.78-5.45Q160.28-5.45 161.78-6.03 163.28-6.6 164.56-7.53 165.84-8.45 166.53-9.5L166.53-9.5 166.88-9.25Q166.88-6.65 165.81-4.83 164.74-3 162.99-1.85 161.23-0.7 159.16-0.18 157.09 0.35 155.03 0.35ZM156.19-13.15L156.19-13.15Q157.78-13.15 158.78-14.08 159.78-15 160.28-16.25 160.78-17.5 160.78-18.45L160.78-18.45Q160.78-19.6 160.13-20.38 159.48-21.15 158.34-21.15L158.34-21.15Q157.44-21.15 156.36-20.5 155.28-19.85 154.44-18.28 153.59-16.7 153.34-13.9L153.34-13.9Q154.94-13.15 156.19-13.15ZM190.23 0.35L190.23 0.35Q186.48 0.35 184.03-1.15 181.58-2.65 180.41-5.13 179.23-7.6 179.23-10.4L179.23-10.4Q179.23-13.05 180.21-15.7 181.18-18.35 183.06-20.53 184.93-22.7 187.63-24.03 190.33-25.35 193.83-25.35L193.83-25.35Q197.58-25.35 200.01-23.83 202.43-22.3 203.61-19.8 204.78-17.3 204.78-14.45L204.78-14.45Q204.78-11.85 203.83-9.22 202.88-6.6 201.01-4.42 199.13-2.25 196.43-0.95 193.73 0.35 190.23 0.35ZM191.58-3.9L191.58-3.9Q192.93-3.9 193.83-5.3 194.73-6.7 195.18-8.88 195.63-11.05 195.63-13.3L195.63-13.3Q195.63-15.3 195.26-17.07 194.88-18.85 194.13-19.98 193.38-21.1 192.18-21.1L192.18-21.1Q190.88-21.1 189.96-19.7 189.03-18.3 188.58-16.15 188.13-14 188.13-11.7L188.13-11.7Q188.13-9.7 188.51-7.93 188.88-6.15 189.63-5.03 190.38-3.9 191.58-3.9ZM212.93 10.15L212.93 10.15Q211.48 10.15 210.18 9.63 208.88 9.1 208.38 8.05L208.38 8.05Q209.58 2.95 210.35-1 211.13-4.95 211.58-8.05 212.03-11.15 212.23-13.73 212.43-16.3 212.48-18.7L212.48-18.7Q210.78-18.6 209.23-18.38 207.68-18.15 206.53-17.75L206.53-17.75 206.43-18.1Q207.88-19.55 209.43-20.53 210.98-21.5 212.53-22.1L212.53-22.1 212.53-25.9Q212.53-29.75 214.08-32.18 215.63-34.6 218.05-35.77 220.48-36.95 223.08-36.95L223.08-36.95Q226.53-36.95 228.25-35.3 229.98-33.65 229.98-31.6L229.98-31.6Q229.98-30.1 229.05-28.7 228.13-27.3 226.28-26.38 224.43-25.45 221.63-25.45L221.63-25.45Q222.43-26.9 222.85-28.35 223.28-29.8 223.28-30.9L223.28-30.9Q223.28-31.75 223.03-32.27 222.78-32.8 222.33-32.8L222.33-32.8Q221.38-32.8 220.5-30.43 219.63-28.05 219.63-24.2L219.63-24.2 219.63-23.25Q221.08-23.3 222.4-23.2 223.73-23.1 224.88-23L224.88-23Q224.98-22.65 225.03-22.25 225.08-21.85 225.08-21.45L225.08-21.45Q225.08-20.7 224.88-19.95 224.68-19.2 224.33-18.4L224.33-18.4Q223.43-18.5 222.28-18.6 221.13-18.7 219.83-18.75L219.83-18.75 219.83-17.65Q219.83-14.9 219.6-11.3 219.38-7.7 218.78-2.75 218.18 2.2 216.93 9.05L216.93 9.05Q215.38 10.15 212.93 10.15ZM245.57 0.35L245.57 0.35Q242.22 0.35 240.02-0.88 237.82-2.1 236.77-4.08 235.72-6.05 235.72-8.35L235.72-8.35Q235.72-10.4 236.52-12.4 237.32-14.4 238.9-16.05 240.47-17.7 242.72-18.65L242.72-18.65Q240.67-19.95 239.65-21.78 238.62-23.6 238.62-25.6L238.62-25.6Q238.62-28.2 240.32-30.65 242.02-33.1 245.27-34.7 248.52-36.3 253.07-36.3L253.07-36.3Q256.22-36.3 258.1-35.52 259.97-34.75 260.82-33.52 261.67-32.3 261.67-30.9L261.67-30.9Q261.67-29.3 260.67-27.73 259.67-26.15 257.8-25.15 255.92-24.15 253.22-24.15L253.22-24.15Q254.02-26.5 254.02-28.05L254.02-28.05Q254.02-29.6 253.37-30.3 252.72-31 251.77-31L251.77-31Q250.77-31 249.65-30.25 248.52-29.5 247.77-28.15 247.02-26.8 247.02-25L247.02-25Q247.02-24.05 247.32-22.88 247.62-21.7 248.27-20.55L248.27-20.55Q249.37-21.25 250.3-21.58 251.22-21.9 251.97-21.9L251.97-21.9Q253.52-21.9 254.22-20.83 254.92-19.75 254.92-18.4L254.92-18.4Q254.92-16.8 253.95-15.35 252.97-13.9 251.07-13.9L251.07-13.9Q249.32-13.9 246.97-15.55L246.97-15.55Q244.22-13.6 244.22-10.95L244.22-10.95Q244.22-8.9 245.5-7.85 246.77-6.8 248.77-6.8L248.77-6.8Q251.32-6.8 254.47-8.58 257.62-10.35 260.07-13.9L260.07-13.9 260.47-13.65Q260.37-10.15 259.05-7.53 257.72-4.9 255.6-3.15 253.47-1.4 250.87-0.53 248.27 0.35 245.57 0.35ZM269.27 0.15L269.27 0.15Q267.42 0.15 265.92-1.33 264.42-2.8 264.42-5.45L264.42-5.45Q264.42-6.75 264.77-8.4 265.12-10.05 265.55-11.75 265.97-13.45 266.32-14.95 266.67-16.45 266.67-17.4L266.67-17.4Q266.67-18.4 266.27-18.98 265.87-19.55 265.22-19.55L265.22-19.55Q264.37-19.55 263.37-18.55L263.37-18.55 263.07-18.75Q263.02-19.55 263.42-20.65 263.82-21.75 264.65-22.78 265.47-23.8 266.77-24.5 268.07-25.2 269.87-25.2L269.87-25.2Q272.52-25.2 273.8-23.68 275.07-22.15 275.07-19.95L275.07-19.95Q275.07-19.15 274.92-18.4L274.92-18.4Q275.97-19.95 277.52-21.53 279.07-23.1 280.94-24.15 282.82-25.2 284.82-25.2L284.82-25.2Q287.17-25.2 288.02-23.7 288.87-22.2 288.87-19.95L288.87-19.95Q288.87-17.85 288.42-15.45 287.97-13.05 287.52-10.83 287.07-8.6 287.07-7.1L287.07-7.1Q287.07-5.1 288.22-5.1L288.22-5.1Q288.82-5.1 289.27-5.48 289.72-5.85 289.87-6.2L289.87-6.2 290.22-6.05Q290.22-4.2 289.19-2.8 288.17-1.4 286.62-0.63 285.07 0.15 283.47 0.15L283.47 0.15Q281.52 0.15 280.02-1.2 278.52-2.55 278.52-5.6L278.52-5.6Q278.52-7.4 279-9.5 279.47-11.6 279.92-13.55 280.37-15.5 280.37-16.75L280.37-16.75Q280.37-17.5 280.1-17.93 279.82-18.35 279.12-18.35L279.12-18.35Q277.97-18.35 276.6-17.3 275.22-16.25 274.25-14.5 273.27-12.75 273.27-10.65L273.27-10.65Q273.27-9.3 273.6-8.05 273.92-6.8 273.92-5.35L273.92-5.35Q273.92-2.65 272.52-1.25 271.12 0.15 269.27 0.15ZM305.02 10L305.02 10Q302.57 10 300.97 8.55 299.37 7.1 299.37 4.45L299.37 4.45Q299.37 1.6 301.37-2.25L301.37-2.25Q301.02-2.15 300.67-2.1 300.32-2.05 299.97-2.05L299.97-2.05Q297.07-2.05 295.09-4.58 293.12-7.1 293.12-11.6L293.12-11.6Q293.12-15.65 294.69-18.75 296.27-21.85 298.72-23.6 301.17-25.35 303.82-25.35L303.82-25.35Q305.67-25.35 307.17-24.43 308.67-23.5 309.62-21.45L309.62-21.45Q309.67-21.95 309.67-22.35 309.67-22.75 309.67-23.1L309.67-23.1Q309.67-23.95 310.97-24.5 312.27-25.05 313.87-25.05L313.87-25.05Q315.32-25.05 316.57-24.5 317.82-23.95 318.22-22.65L318.22-22.65 318.32-22.35Q317.87-21.95 317.54-19.75 317.22-17.55 316.77-13.65L316.77-13.65Q316.47-11.2 316.02-8.08 315.57-4.95 314.79-1.78 314.02 1.4 312.77 4.08 311.52 6.75 309.62 8.38 307.72 10 305.02 10ZM303.37-7.8L303.37-7.8Q304.82-7.8 306.59-10.18 308.37-12.55 309.42-17L309.42-17Q308.52-18.95 307.59-19.78 306.67-20.6 305.72-20.6L305.72-20.6Q304.47-20.6 303.37-19.35 302.27-18.1 301.59-16.18 300.92-14.25 300.92-12.2L300.92-12.2Q300.92-10.1 301.62-8.95 302.32-7.8 303.37-7.8ZM302.77 4.25L302.77 4.25Q304.47 4.25 306.24 0.93 308.02-2.4 308.72-8.45L308.72-8.45Q304.92-3.3 303.44-0.53 301.97 2.25 301.97 3.4L301.97 3.4Q301.97 4.25 302.77 4.25ZM330.12-26.75L330.12-26.75Q328.12-26.75 326.84-27.98 325.57-29.2 325.57-31.05L325.57-31.05Q325.57-33.05 327.07-34.5 328.57-35.95 330.72-35.95L330.72-35.95Q332.72-35.95 333.99-34.7 335.27-33.45 335.27-31.6L335.27-31.6Q335.27-29.6 333.77-28.18 332.27-26.75 330.12-26.75ZM326.62 0.2L326.62 0.2Q324.67 0.2 323.12-1.18 321.57-2.55 321.57-5.6L321.57-5.6Q321.57-7.35 322.04-8.88 322.52-10.4 323.14-11.85 323.77-13.3 324.24-14.68 324.72-16.05 324.72-17.4L324.72-17.4Q324.72-18.6 324.32-19.13 323.92-19.65 323.37-19.65L323.37-19.65Q322.52-19.65 321.72-18.55L321.72-18.55 321.37-18.75Q321.57-20.75 322.64-22.18 323.72-23.6 325.29-24.4 326.87-25.2 328.42-25.2L328.42-25.2Q330.32-25.2 331.72-23.98 333.12-22.75 333.12-20L333.12-20Q333.12-18.35 332.64-16.53 332.17-14.7 331.54-12.9 330.92-11.1 330.44-9.55 329.97-8 329.97-6.9L329.97-6.9Q329.97-5.95 330.34-5.55 330.72-5.15 331.17-5.15L331.17-5.15Q331.62-5.15 332.04-5.43 332.47-5.7 332.67-6.05L332.67-6.05 333.02-5.95Q333.02-4.1 332.04-2.73 331.07-1.35 329.62-0.58 328.17 0.2 326.62 0.2ZM342.81 0.15L342.81 0.15Q340.96 0.15 339.46-1.33 337.96-2.8 337.96-5.45L337.96-5.45Q337.96-6.75 338.31-8.4 338.66-10.05 339.09-11.75 339.51-13.45 339.86-14.95 340.21-16.45 340.21-17.4L340.21-17.4Q340.21-18.4 339.81-18.98 339.41-19.55 338.76-19.55L338.76-19.55Q337.91-19.55 336.91-18.55L336.91-18.55 336.61-18.75Q336.56-19.55 336.96-20.65 337.36-21.75 338.19-22.78 339.01-23.8 340.31-24.5 341.61-25.2 343.41-25.2L343.41-25.2Q346.06-25.2 347.34-23.68 348.61-22.15 348.61-19.95L348.61-19.95Q348.61-19.15 348.46-18.4L348.46-18.4Q349.51-19.95 351.06-21.53 352.61-23.1 354.49-24.15 356.36-25.2 358.36-25.2L358.36-25.2Q360.71-25.2 361.56-23.7 362.41-22.2 362.41-19.95L362.41-19.95Q362.41-17.85 361.96-15.45 361.51-13.05 361.06-10.83 360.61-8.6 360.61-7.1L360.61-7.1Q360.61-5.1 361.76-5.1L361.76-5.1Q362.36-5.1 362.81-5.48 363.26-5.85 363.41-6.2L363.41-6.2 363.76-6.05Q363.76-4.2 362.74-2.8 361.71-1.4 360.16-0.63 358.61 0.15 357.01 0.15L357.01 0.15Q355.06 0.15 353.56-1.2 352.06-2.55 352.06-5.6L352.06-5.6Q352.06-7.4 352.54-9.5 353.01-11.6 353.46-13.55 353.91-15.5 353.91-16.75L353.91-16.75Q353.91-17.5 353.64-17.93 353.36-18.35 352.66-18.35L352.66-18.35Q351.51-18.35 350.14-17.3 348.76-16.25 347.79-14.5 346.81-12.75 346.81-10.65L346.81-10.65Q346.81-9.3 347.14-8.05 347.46-6.8 347.46-5.35L347.46-5.35Q347.46-2.65 346.06-1.25 344.66 0.15 342.81 0.15ZM377.16 0.35L377.16 0.35Q373.51 0.35 371.11-1.13 368.71-2.6 367.51-5.03 366.31-7.45 366.31-10.25L366.31-10.25Q366.31-12.9 367.34-15.58 368.36-18.25 370.34-20.45 372.31-22.65 375.14-24 377.96-25.35 381.51-25.35L381.51-25.35Q385.91-25.35 387.94-23.38 389.96-21.4 389.96-18.6L389.96-18.6Q389.96-16.2 388.69-14.18 387.41-12.15 385.31-10.93 383.21-9.7 380.71-9.7L380.71-9.7Q379.41-9.7 378.06-10.1 376.71-10.5 375.41-11.35L375.41-11.35Q375.66-8.25 377.21-6.85 378.76-5.45 380.91-5.45L380.91-5.45Q382.41-5.45 383.91-6.03 385.41-6.6 386.69-7.53 387.96-8.45 388.66-9.5L388.66-9.5 389.01-9.25Q389.01-6.65 387.94-4.83 386.86-3 385.11-1.85 383.36-0.7 381.29-0.18 379.21 0.35 377.16 0.35ZM378.31-13.15L378.31-13.15Q379.91-13.15 380.91-14.08 381.91-15 382.41-16.25 382.91-17.5 382.91-18.45L382.91-18.45Q382.91-19.6 382.26-20.38 381.61-21.15 380.46-21.15L380.46-21.15Q379.56-21.15 378.49-20.5 377.41-19.85 376.56-18.28 375.71-16.7 375.46-13.9L375.46-13.9Q377.06-13.15 378.31-13.15ZM403.21 0.35L403.21 0.35Q399.56 0.35 397.16-1.13 394.76-2.6 393.56-5.03 392.36-7.45 392.36-10.25L392.36-10.25Q392.36-12.9 393.38-15.58 394.41-18.25 396.38-20.45 398.36-22.65 401.18-24 404.01-25.35 407.56-25.35L407.56-25.35Q411.96-25.35 413.98-23.38 416.01-21.4 416.01-18.6L416.01-18.6Q416.01-16.2 414.73-14.18 413.46-12.15 411.36-10.93 409.26-9.7 406.76-9.7L406.76-9.7Q405.46-9.7 404.11-10.1 402.76-10.5 401.46-11.35L401.46-11.35Q401.71-8.25 403.26-6.85 404.81-5.45 406.96-5.45L406.96-5.45Q408.46-5.45 409.96-6.03 411.46-6.6 412.73-7.53 414.01-8.45 414.71-9.5L414.71-9.5 415.06-9.25Q415.06-6.65 413.98-4.83 412.91-3 411.16-1.85 409.41-0.7 407.33-0.18 405.26 0.35 403.21 0.35ZM404.36-13.15L404.36-13.15Q405.96-13.15 406.96-14.08 407.96-15 408.46-16.25 408.96-17.5 408.96-18.45L408.96-18.45Q408.96-19.6 408.31-20.38 407.66-21.15 406.51-21.15L406.51-21.15Q405.61-21.15 404.53-20.5 403.46-19.85 402.61-18.28 401.76-16.7 401.51-13.9L401.51-13.9Q403.11-13.15 404.36-13.15ZM424.36 0.2L424.36 0.2Q422.56 0.2 421.16-1.28 419.76-2.75 419.76-5.45L419.76-5.45Q419.76-6.75 420.06-8.4 420.36-10.05 420.76-11.78 421.16-13.5 421.46-15.03 421.76-16.55 421.76-17.55L421.76-17.55Q421.76-18.6 421.38-19.23 421.01-19.85 420.41-19.85L420.41-19.85Q419.46-19.85 418.46-18.55L418.46-18.55 418.16-18.75Q418.11-19.55 418.51-20.65 418.91-21.75 419.76-22.78 420.61-23.8 421.93-24.5 423.26-25.2 425.06-25.2L425.06-25.2Q427.71-25.2 428.91-23.68 430.11-22.15 430.11-20L430.11-20Q430.11-19.65 430.08-19.28 430.06-18.9 430.01-18.55L430.01-18.55Q431.81-21.8 433.78-23.53 435.76-25.25 437.46-25.25L437.46-25.25Q439.06-25.25 439.81-24 440.56-22.75 440.56-21L440.56-21Q440.56-19.4 439.93-17.75 439.31-16.1 438.08-15.03 436.86-13.95 435.11-14L435.11-14 434.91-14.1Q434.86-15.4 434.06-16.15 433.26-16.9 432.26-16.9L432.26-16.9Q430.91-16.9 429.73-15.55 428.56-14.2 428.56-11.65L428.56-11.65Q428.56-10.1 428.91-8.3 429.26-6.5 429.26-5.25L429.26-5.25Q429.26-3.75 428.56-2.5 427.86-1.25 426.76-0.53 425.66 0.2 424.36 0.2ZM451.45-26.75L451.45-26.75Q449.45-26.75 448.18-27.98 446.9-29.2 446.9-31.05L446.9-31.05Q446.9-33.05 448.4-34.5 449.9-35.95 452.05-35.95L452.05-35.95Q454.05-35.95 455.33-34.7 456.6-33.45 456.6-31.6L456.6-31.6Q456.6-29.6 455.1-28.18 453.6-26.75 451.45-26.75ZM447.95 0.2L447.95 0.2Q446 0.2 444.45-1.18 442.9-2.55 442.9-5.6L442.9-5.6Q442.9-7.35 443.38-8.88 443.85-10.4 444.48-11.85 445.1-13.3 445.58-14.68 446.05-16.05 446.05-17.4L446.05-17.4Q446.05-18.6 445.65-19.13 445.25-19.65 444.7-19.65L444.7-19.65Q443.85-19.65 443.05-18.55L443.05-18.55 442.7-18.75Q442.9-20.75 443.98-22.18 445.05-23.6 446.63-24.4 448.2-25.2 449.75-25.2L449.75-25.2Q451.65-25.2 453.05-23.98 454.45-22.75 454.45-20L454.45-20Q454.45-18.35 453.98-16.53 453.5-14.7 452.88-12.9 452.25-11.1 451.78-9.55 451.3-8 451.3-6.9L451.3-6.9Q451.3-5.95 451.68-5.55 452.05-5.15 452.5-5.15L452.5-5.15Q452.95-5.15 453.38-5.43 453.8-5.7 454-6.05L454-6.05 454.35-5.95Q454.35-4.1 453.38-2.73 452.4-1.35 450.95-0.58 449.5 0.2 447.95 0.2ZM464.15 0.15L464.15 0.15Q462.3 0.15 460.8-1.33 459.3-2.8 459.3-5.45L459.3-5.45Q459.3-6.75 459.65-8.4 460-10.05 460.43-11.75 460.85-13.45 461.2-14.95 461.55-16.45 461.55-17.4L461.55-17.4Q461.55-18.4 461.15-18.98 460.75-19.55 460.1-19.55L460.1-19.55Q459.25-19.55 458.25-18.55L458.25-18.55 457.95-18.75Q457.9-19.55 458.3-20.65 458.7-21.75 459.53-22.78 460.35-23.8 461.65-24.5 462.95-25.2 464.75-25.2L464.75-25.2Q467.4-25.2 468.68-23.68 469.95-22.15 469.95-19.95L469.95-19.95Q469.95-19.15 469.8-18.4L469.8-18.4Q470.85-19.95 472.4-21.53 473.95-23.1 475.83-24.15 477.7-25.2 479.7-25.2L479.7-25.2Q482.05-25.2 482.9-23.7 483.75-22.2 483.75-19.95L483.75-19.95Q483.75-17.85 483.3-15.45 482.85-13.05 482.4-10.83 481.95-8.6 481.95-7.1L481.95-7.1Q481.95-5.1 483.1-5.1L483.1-5.1Q483.7-5.1 484.15-5.48 484.6-5.85 484.75-6.2L484.75-6.2 485.1-6.05Q485.1-4.2 484.08-2.8 483.05-1.4 481.5-0.63 479.95 0.15 478.35 0.15L478.35 0.15Q476.4 0.15 474.9-1.2 473.4-2.55 473.4-5.6L473.4-5.6Q473.4-7.4 473.88-9.5 474.35-11.6 474.8-13.55 475.25-15.5 475.25-16.75L475.25-16.75Q475.25-17.5 474.98-17.93 474.7-18.35 474-18.35L474-18.35Q472.85-18.35 471.48-17.3 470.1-16.25 469.13-14.5 468.15-12.75 468.15-10.65L468.15-10.65Q468.15-9.3 468.48-8.05 468.8-6.8 468.8-5.35L468.8-5.35Q468.8-2.65 467.4-1.25 466 0.15 464.15 0.15ZM499.9 10L499.9 10Q497.45 10 495.85 8.55 494.25 7.1 494.25 4.45L494.25 4.45Q494.25 1.6 496.25-2.25L496.25-2.25Q495.9-2.15 495.55-2.1 495.2-2.05 494.85-2.05L494.85-2.05Q491.95-2.05 489.97-4.58 488-7.1 488-11.6L488-11.6Q488-15.65 489.57-18.75 491.15-21.85 493.6-23.6 496.05-25.35 498.7-25.35L498.7-25.35Q500.55-25.35 502.05-24.43 503.55-23.5 504.5-21.45L504.5-21.45Q504.55-21.95 504.55-22.35 504.55-22.75 504.55-23.1L504.55-23.1Q504.55-23.95 505.85-24.5 507.15-25.05 508.75-25.05L508.75-25.05Q510.2-25.05 511.45-24.5 512.7-23.95 513.1-22.65L513.1-22.65 513.2-22.35Q512.75-21.95 512.42-19.75 512.1-17.55 511.65-13.65L511.65-13.65Q511.35-11.2 510.9-8.08 510.45-4.95 509.67-1.78 508.9 1.4 507.65 4.08 506.4 6.75 504.5 8.38 502.6 10 499.9 10ZM498.25-7.8L498.25-7.8Q499.7-7.8 501.47-10.18 503.25-12.55 504.3-17L504.3-17Q503.4-18.95 502.47-19.78 501.55-20.6 500.6-20.6L500.6-20.6Q499.35-20.6 498.25-19.35 497.15-18.1 496.47-16.18 495.8-14.25 495.8-12.2L495.8-12.2Q495.8-10.1 496.5-8.95 497.2-7.8 498.25-7.8ZM497.65 4.25L497.65 4.25Q499.35 4.25 501.12 0.93 502.9-2.4 503.6-8.45L503.6-8.45Q499.8-3.3 498.32-0.53 496.85 2.25 496.85 3.4L496.85 3.4Q496.85 4.25 497.65 4.25ZM542.79 0.25L542.79 0.25Q541.04 0.25 539.74-0.9 538.44-2.05 538.44-4.65L538.44-4.65Q538.44-4.9 538.44-5.15 538.44-5.4 538.49-5.65L538.49-5.65Q536.99-2.65 535.12-1.23 533.24 0.2 531.34 0.2L531.34 0.2Q529.59 0.2 528.04-1.03 526.49-2.25 525.54-4.65 524.59-7.05 524.59-10.45L524.59-10.45Q524.59-13.95 525.57-16.7 526.54-19.45 528.14-21.35 529.74-23.25 531.64-24.23 533.54-25.2 535.34-25.2L535.34-25.2Q537.34-25.2 538.94-23.98 540.54-22.75 541.14-20.1L541.14-20.1Q541.29-20.95 541.37-21.65 541.44-22.35 541.44-22.6L541.44-22.6Q541.49-23.95 542.82-24.6 544.14-25.25 545.74-25.25L545.74-25.25Q547.14-25.25 548.39-24.7 549.64-24.15 550.09-22.85L550.09-22.85 550.19-22.55Q549.59-21.2 548.99-19.3 548.39-17.4 547.89-15.33 547.39-13.25 547.09-11.28 546.79-9.3 546.79-7.8L546.79-7.8Q546.79-6.15 547.14-5.53 547.49-4.9 547.99-4.9L547.99-4.9Q548.84-4.9 549.54-6.1L549.54-6.1 549.94-5.9Q549.94-4.2 548.84-2.8 547.74-1.4 546.09-0.58 544.44 0.25 542.79 0.25ZM534.64-6.1L534.64-6.1Q535.94-6.1 537.52-8.43 539.09-10.75 540.24-15.1L540.24-15.1Q540.34-15.55 540.44-15.98 540.54-16.4 540.59-16.8L540.59-16.8Q539.79-18.65 538.92-19.43 538.04-20.2 537.19-20.2L537.19-20.2Q535.94-20.2 534.87-18.88 533.79-17.55 533.12-15.55 532.44-13.55 532.44-11.55L532.44-11.55Q532.44-8.8 533.07-7.45 533.69-6.1 534.64-6.1ZM558.64 0.15L558.64 0.15Q556.79 0.15 555.29-1.33 553.79-2.8 553.79-5.45L553.79-5.45Q553.79-6.75 554.14-8.4 554.49-10.05 554.91-11.75 555.34-13.45 555.69-14.95 556.04-16.45 556.04-17.4L556.04-17.4Q556.04-18.4 555.64-18.98 555.24-19.55 554.59-19.55L554.59-19.55Q553.74-19.55 552.74-18.55L552.74-18.55 552.44-18.75Q552.39-19.55 552.79-20.65 553.19-21.75 554.01-22.78 554.84-23.8 556.14-24.5 557.44-25.2 559.24-25.2L559.24-25.2Q561.89-25.2 563.16-23.68 564.44-22.15 564.44-19.95L564.44-19.95Q564.44-19.15 564.29-18.4L564.29-18.4Q565.34-19.95 566.89-21.53 568.44-23.1 570.31-24.15 572.19-25.2 574.19-25.2L574.19-25.2Q576.54-25.2 577.39-23.7 578.24-22.2 578.24-19.95L578.24-19.95Q578.24-17.85 577.79-15.45 577.34-13.05 576.89-10.83 576.44-8.6 576.44-7.1L576.44-7.1Q576.44-5.1 577.59-5.1L577.59-5.1Q578.19-5.1 578.64-5.48 579.09-5.85 579.24-6.2L579.24-6.2 579.59-6.05Q579.59-4.2 578.56-2.8 577.54-1.4 575.99-0.63 574.44 0.15 572.84 0.15L572.84 0.15Q570.89 0.15 569.39-1.2 567.89-2.55 567.89-5.6L567.89-5.6Q567.89-7.4 568.37-9.5 568.84-11.6 569.29-13.55 569.74-15.5 569.74-16.75L569.74-16.75Q569.74-17.5 569.46-17.93 569.19-18.35 568.49-18.35L568.49-18.35Q567.34-18.35 565.96-17.3 564.59-16.25 563.62-14.5 562.64-12.75 562.64-10.65L562.64-10.65Q562.64-9.3 562.96-8.05 563.29-6.8 563.29-5.35L563.29-5.35Q563.29-2.65 561.89-1.25 560.49 0.15 558.64 0.15ZM589.39 0.2L589.39 0.2Q587.59 0.2 586.01-1.05 584.44-2.3 583.46-4.7 582.49-7.1 582.49-10.5L582.49-10.5Q582.49-14 583.49-16.75 584.49-19.5 586.11-21.43 587.74-23.35 589.66-24.35 591.59-25.35 593.44-25.35L593.44-25.35Q595.49-25.35 597.09-24.08 598.69-22.8 599.29-20.1L599.29-20.1Q599.74-22.6 600.06-24.88 600.39-27.15 600.39-28.9L600.39-28.9Q600.39-31.2 599.79-32.25L599.79-32.25 599.79-32.55Q600.94-33.85 602.31-34.48 603.69-35.1 604.94-35.1L604.94-35.1Q606.59-35.1 607.74-34.08 608.89-33.05 608.89-31.15L608.89-31.15Q608.89-30.1 608.54-28.05 608.19-26 607.69-23.38 607.19-20.75 606.66-17.98 606.14-15.2 605.79-12.68 605.44-10.15 605.44-8.3L605.44-8.3Q605.44-6.75 605.76-5.83 606.09-4.9 606.84-4.9L606.84-4.9Q607.39-4.9 607.96-5.28 608.54-5.65 608.74-6.15L608.74-6.15 609.09-5.9Q609.09-4.25 608.04-2.88 606.99-1.5 605.39-0.65 603.79 0.2 602.09 0.2L602.09 0.2Q600.24 0.2 599.16-0.83 598.09-1.85 597.64-3.45 597.19-5.05 597.14-6.75L597.14-6.75Q595.59-3.15 593.51-1.48 591.44 0.2 589.39 0.2ZM592.74-6.15L592.74-6.15Q594.04-6.15 595.64-8.5 597.24-10.85 598.44-15.35L598.44-15.35 598.74-16.9Q597.94-18.75 597.01-19.53 596.09-20.3 595.24-20.3L595.24-20.3Q593.99-20.3 592.89-18.93 591.79-17.55 591.11-15.43 590.44-13.3 590.44-10.95L590.44-10.95Q590.44-8.7 591.09-7.43 591.74-6.15 592.74-6.15ZM631.48 0.2L631.48 0.2Q629.93 0.2 628.76-0.6 627.58-1.4 627.63-3L627.63-3Q627.73-5.8 628.06-9.2 628.38-12.6 628.83-16.13 629.28-19.65 629.76-22.9 630.23-26.15 630.63-28.7L630.63-28.7Q629.73-28.8 628.88-28.85 628.03-28.9 627.33-28.9L627.33-28.9Q625.23-28.9 623.56-28.5 621.88-28.1 620.73-27.1L620.73-27.1Q620.73-30.25 621.26-32.23 621.78-34.2 623.21-35.1 624.63-36 627.38-36L627.38-36Q629.38-36 631.86-35.68 634.33-35.35 636.88-35 639.43-34.65 641.63-34.65L641.63-34.65Q643.43-34.65 644.86-35 646.28-35.35 647.03-36.25L647.03-36.25Q648.13-35.9 648.73-34.73 649.33-33.55 649.33-32.15L649.33-32.15Q649.33-30.9 648.78-29.73 648.23-28.55 647.03-27.78 645.83-27 643.78-27L643.78-27Q642.83-27 641.46-27.18 640.08-27.35 638.53-27.55L638.53-27.55Q637.98-24.55 637.41-20.38 636.83-16.2 636.46-11.4 636.08-6.6 635.98-1.65L635.98-1.65Q635.08-0.7 633.86-0.25 632.63 0.2 631.48 0.2ZM660.63 0.35L660.63 0.35Q656.98 0.35 654.58-1.13 652.18-2.6 650.98-5.03 649.78-7.45 649.78-10.25L649.78-10.25Q649.78-12.9 650.8-15.58 651.83-18.25 653.8-20.45 655.78-22.65 658.6-24 661.43-25.35 664.98-25.35L664.98-25.35Q669.38-25.35 671.4-23.38 673.43-21.4 673.43-18.6L673.43-18.6Q673.43-16.2 672.15-14.18 670.88-12.15 668.78-10.93 666.68-9.7 664.18-9.7L664.18-9.7Q662.88-9.7 661.53-10.1 660.18-10.5 658.88-11.35L658.88-11.35Q659.13-8.25 660.68-6.85 662.23-5.45 664.38-5.45L664.38-5.45Q665.88-5.45 667.38-6.03 668.88-6.6 670.15-7.53 671.43-8.45 672.13-9.5L672.13-9.5 672.48-9.25Q672.48-6.65 671.4-4.83 670.33-3 668.58-1.85 666.83-0.7 664.75-0.18 662.68 0.35 660.63 0.35ZM661.78-13.15L661.78-13.15Q663.38-13.15 664.38-14.08 665.38-15 665.88-16.25 666.38-17.5 666.38-18.45L666.38-18.45Q666.38-19.6 665.73-20.38 665.08-21.15 663.93-21.15L663.93-21.15Q663.03-21.15 661.95-20.5 660.88-19.85 660.03-18.28 659.18-16.7 658.93-13.9L658.93-13.9Q660.53-13.15 661.78-13.15ZM685.58 0.35L685.58 0.35Q682.28 0.35 680-1.15 677.73-2.65 676.58-5.08 675.43-7.5 675.43-10.3L675.43-10.3Q675.43-12.95 676.45-15.6 677.48-18.25 679.48-20.48 681.48-22.7 684.35-24.03 687.23-25.35 690.98-25.35L690.98-25.35Q694.68-25.35 696.48-23.88 698.28-22.4 698.28-20.65L698.28-20.65Q698.28-18.8 696.43-17.25 694.58-15.7 691.03-15.7L691.03-15.7Q691.23-16.45 691.35-17.23 691.48-18 691.48-18.7L691.48-18.7Q691.48-19.75 691.03-20.48 690.58-21.2 689.43-21.2L689.43-21.2Q688.38-21.2 687.2-20.25 686.03-19.3 685.2-17.45 684.38-15.6 684.38-12.9L684.38-12.9Q684.38-10.25 685.25-8.6 686.13-6.95 687.53-6.23 688.93-5.5 690.48-5.5L690.48-5.5Q692.53-5.5 694.43-6.58 696.33-7.65 697.18-9.55L697.18-9.55 697.68-9.35Q697.68-6.75 696.5-4.93 695.33-3.1 693.48-1.93 691.63-0.75 689.53-0.2 687.43 0.35 685.58 0.35ZM705.37 0.2L705.37 0.2Q703.22 0.2 701.92-1.25 700.62-2.7 700.62-5.2L700.62-5.2Q700.62-6.55 700.97-8.72 701.32-10.9 701.85-13.53 702.37-16.15 702.87-18.88 703.37-21.6 703.72-24.15 704.07-26.7 704.07-28.65L704.07-28.65Q704.07-31.1 703.42-32.2L703.42-32.2 703.42-32.5Q704.52-33.75 705.82-34.35 707.12-34.95 708.37-34.95L708.37-34.95Q710.27-34.95 711.62-33.6 712.97-32.25 712.97-29.55L712.97-29.55Q712.97-28.1 712.57-26 712.17-23.9 711.62-21.6 711.07-19.3 710.52-17.3L710.52-17.3Q711.47-19.15 713.05-20.98 714.62-22.8 716.65-24 718.67-25.2 720.87-25.2L720.87-25.2Q723.37-25.2 724.25-23.65 725.12-22.1 725.12-19.8L725.12-19.8Q725.12-17.7 724.67-15.33 724.22-12.95 723.77-10.78 723.32-8.6 723.32-7.15L723.32-7.15Q723.32-5.05 724.57-5.05L724.57-5.05Q725.12-5.05 725.55-5.38 725.97-5.7 726.17-6.1L726.17-6.1 726.52-5.85Q726.52-3.9 725.57-2.55 724.62-1.2 723.15-0.5 721.67 0.2 720.12 0.2L720.12 0.2Q718.07 0.2 716.42-1.18 714.77-2.55 714.77-5.65L714.77-5.65Q714.77-7.4 715.25-9.45 715.72-11.5 716.17-13.43 716.62-15.35 716.62-16.65L716.62-16.65Q716.62-18.35 715.42-18.35L715.42-18.35Q714.32-18.35 713.02-17.25 711.72-16.15 710.75-14.5 709.77-12.85 709.47-11.25L709.47-11.25Q709.37-10.85 709.37-10.3L709.37-10.3Q709.37-9.05 709.75-7.9 710.12-6.75 710.12-5.2L710.12-5.2Q710.12-2.9 708.92-1.35 707.72 0.2 705.37 0.2ZM735.02 0.15L735.02 0.15Q733.17 0.15 731.67-1.33 730.17-2.8 730.17-5.45L730.17-5.45Q730.17-6.75 730.52-8.4 730.87-10.05 731.3-11.75 731.72-13.45 732.07-14.95 732.42-16.45 732.42-17.4L732.42-17.4Q732.42-18.4 732.02-18.98 731.62-19.55 730.97-19.55L730.97-19.55Q730.12-19.55 729.12-18.55L729.12-18.55 728.82-18.75Q728.77-19.55 729.17-20.65 729.57-21.75 730.4-22.78 731.22-23.8 732.52-24.5 733.82-25.2 735.62-25.2L735.62-25.2Q738.27-25.2 739.55-23.68 740.82-22.15 740.82-19.95L740.82-19.95Q740.82-19.15 740.67-18.4L740.67-18.4Q741.72-19.95 743.27-21.53 744.82-23.1 746.7-24.15 748.57-25.2 750.57-25.2L750.57-25.2Q752.92-25.2 753.77-23.7 754.62-22.2 754.62-19.95L754.62-19.95Q754.62-17.85 754.17-15.45 753.72-13.05 753.27-10.83 752.82-8.6 752.82-7.1L752.82-7.1Q752.82-5.1 753.97-5.1L753.97-5.1Q754.57-5.1 755.02-5.48 755.47-5.85 755.62-6.2L755.62-6.2 755.97-6.05Q755.97-4.2 754.95-2.8 753.92-1.4 752.37-0.63 750.82 0.15 749.22 0.15L749.22 0.15Q747.27 0.15 745.77-1.2 744.27-2.55 744.27-5.6L744.27-5.6Q744.27-7.4 744.75-9.5 745.22-11.6 745.67-13.55 746.12-15.5 746.12-16.75L746.12-16.75Q746.12-17.5 745.85-17.93 745.57-18.35 744.87-18.35L744.87-18.35Q743.72-18.35 742.35-17.3 740.97-16.25 740-14.5 739.02-12.75 739.02-10.65L739.02-10.65Q739.02-9.3 739.35-8.05 739.67-6.8 739.67-5.35L739.67-5.35Q739.67-2.65 738.27-1.25 736.87 0.15 735.02 0.15ZM769.52 0.35L769.52 0.35Q765.77 0.35 763.32-1.15 760.87-2.65 759.69-5.13 758.52-7.6 758.52-10.4L758.52-10.4Q758.52-13.05 759.49-15.7 760.47-18.35 762.34-20.53 764.22-22.7 766.92-24.03 769.62-25.35 773.12-25.35L773.12-25.35Q776.87-25.35 779.29-23.83 781.72-22.3 782.89-19.8 784.07-17.3 784.07-14.45L784.07-14.45Q784.07-11.85 783.12-9.22 782.17-6.6 780.29-4.42 778.42-2.25 775.72-0.95 773.02 0.35 769.52 0.35ZM770.87-3.9L770.87-3.9Q772.22-3.9 773.12-5.3 774.02-6.7 774.47-8.88 774.92-11.05 774.92-13.3L774.92-13.3Q774.92-15.3 774.54-17.07 774.17-18.85 773.42-19.98 772.67-21.1 771.47-21.1L771.47-21.1Q770.17-21.1 769.24-19.7 768.32-18.3 767.87-16.15 767.42-14 767.42-11.7L767.42-11.7Q767.42-9.7 767.79-7.93 768.17-6.15 768.92-5.03 769.67-3.9 770.87-3.9ZM792.67 0.2L792.67 0.2Q791.32 0.2 790.04-0.48 788.77-1.15 787.97-2.65 787.17-4.15 787.17-6.5L787.17-6.5Q787.17-8.6 787.74-11.43 788.32-14.25 789.04-17.3 789.77-20.35 790.32-23.25 790.87-26.15 790.82-28.4L790.82-28.4Q790.82-30.55 790.32-31.45L790.32-31.45 790.27-31.6Q790.82-33.2 792.22-34.1 793.62-35 795.17-35L795.17-35Q796.92-35 798.29-33.68 799.67-32.35 799.67-29.25L799.67-29.25Q799.67-27.6 799.27-25.33 798.87-23.05 798.32-20.48 797.77-17.9 797.19-15.4 796.62-12.9 796.22-10.8 795.82-8.7 795.82-7.35L795.82-7.35Q795.82-5.95 796.22-5.43 796.62-4.9 797.12-4.9L797.12-4.9Q797.67-4.9 798.17-5.33 798.67-5.75 798.82-6.1L798.82-6.1 799.22-6Q799.17-4.2 798.19-2.8 797.22-1.4 795.74-0.6 794.27 0.2 792.67 0.2ZM813.16 0.35L813.16 0.35Q809.41 0.35 806.96-1.15 804.51-2.65 803.34-5.13 802.16-7.6 802.16-10.4L802.16-10.4Q802.16-13.05 803.14-15.7 804.11-18.35 805.99-20.53 807.86-22.7 810.56-24.03 813.26-25.35 816.76-25.35L816.76-25.35Q820.51-25.35 822.94-23.83 825.36-22.3 826.54-19.8 827.71-17.3 827.71-14.45L827.71-14.45Q827.71-11.85 826.76-9.22 825.81-6.6 823.94-4.42 822.06-2.25 819.36-0.95 816.66 0.35 813.16 0.35ZM814.51-3.9L814.51-3.9Q815.86-3.9 816.76-5.3 817.66-6.7 818.11-8.88 818.56-11.05 818.56-13.3L818.56-13.3Q818.56-15.3 818.19-17.07 817.81-18.85 817.06-19.98 816.31-21.1 815.11-21.1L815.11-21.1Q813.81-21.1 812.89-19.7 811.96-18.3 811.51-16.15 811.06-14 811.06-11.7L811.06-11.7Q811.06-9.7 811.44-7.93 811.81-6.15 812.56-5.03 813.31-3.9 814.51-3.9ZM842.76 10L842.76 10Q840.31 10 838.71 8.55 837.11 7.1 837.11 4.45L837.11 4.45Q837.11 1.6 839.11-2.25L839.11-2.25Q838.76-2.15 838.41-2.1 838.06-2.05 837.71-2.05L837.71-2.05Q834.81-2.05 832.84-4.58 830.86-7.1 830.86-11.6L830.86-11.6Q830.86-15.65 832.44-18.75 834.01-21.85 836.46-23.6 838.91-25.35 841.56-25.35L841.56-25.35Q843.41-25.35 844.91-24.43 846.41-23.5 847.36-21.45L847.36-21.45Q847.41-21.95 847.41-22.35 847.41-22.75 847.41-23.1L847.41-23.1Q847.41-23.95 848.71-24.5 850.01-25.05 851.61-25.05L851.61-25.05Q853.06-25.05 854.31-24.5 855.56-23.95 855.96-22.65L855.96-22.65 856.06-22.35Q855.61-21.95 855.29-19.75 854.96-17.55 854.51-13.65L854.51-13.65Q854.21-11.2 853.76-8.08 853.31-4.95 852.54-1.78 851.76 1.4 850.51 4.08 849.26 6.75 847.36 8.38 845.46 10 842.76 10ZM841.11-7.8L841.11-7.8Q842.56-7.8 844.34-10.18 846.11-12.55 847.16-17L847.16-17Q846.26-18.95 845.34-19.78 844.41-20.6 843.46-20.6L843.46-20.6Q842.21-20.6 841.11-19.35 840.01-18.1 839.34-16.18 838.66-14.25 838.66-12.2L838.66-12.2Q838.66-10.1 839.36-8.95 840.06-7.8 841.11-7.8ZM840.51 4.25L840.51 4.25Q842.21 4.25 843.99 0.93 845.76-2.4 846.46-8.45L846.46-8.45Q842.66-3.3 841.19-0.53 839.71 2.25 839.71 3.4L839.71 3.4Q839.71 4.25 840.51 4.25ZM868.81 10L868.81 10Q866.31 10 864.78 8.47 863.26 6.95 863.26 4.35L863.26 4.35Q863.26 3 863.73 1.38 864.21-0.25 865.31-2.05L865.31-2.05Q862.86-2.2 861.28-3.7 859.71-5.2 859.71-8.25L859.71-8.25Q859.71-10.05 860.18-12.13 860.66-14.2 861.11-16.03 861.56-17.85 861.56-18.85L861.56-18.85Q861.56-19.6 861.26-19.93 860.96-20.25 860.56-20.25L860.56-20.25Q860.16-20.25 859.68-19.93 859.21-19.6 858.96-18.95L858.96-18.95 858.11-19.85Q858.41-21.4 859.41-22.6 860.41-23.8 861.86-24.5 863.31-25.2 864.86-25.2L864.86-25.2Q866.61-25.2 867.91-24.08 869.21-22.95 869.21-20L869.21-20Q869.21-18.15 868.76-16.03 868.31-13.9 867.86-12.03 867.41-10.15 867.41-9.05L867.41-9.05Q867.41-8.05 867.83-7.58 868.26-7.1 868.81-7.1L868.81-7.1Q869.51-7.1 870.41-7.88 871.31-8.65 872.11-10.45 872.91-12.25 873.16-15.3L873.16-15.3Q873.26-16.25 873.31-17.73 873.36-19.2 873.41-20.48 873.46-21.75 873.46-22.05L873.46-22.05Q873.46-23.85 874.78-24.58 876.11-25.3 877.71-25.3L877.71-25.3Q879.11-25.3 880.36-24.75 881.61-24.2 882.06-22.9L882.06-22.9 882.16-22.6Q881.71-22.2 881.38-19.9 881.06-17.6 880.61-13.75L880.61-13.75Q880.31-11.25 879.86-8.1 879.41-4.95 878.63-1.78 877.86 1.4 876.58 4.08 875.31 6.75 873.41 8.38 871.51 10 868.81 10ZM867.61 4.25L867.61 4.25Q869.16 4.25 870.38 1.43 871.61-1.4 872.31-6.6L872.31-6.6Q869.11-2.5 867.91-0.15 866.71 2.2 866.71 3.25L866.71 3.25Q866.71 4.25 867.61 4.25Z" opacity="1" transform="matrix(1,0,0,1,0,0)" fill="#0074d9" class="slogan-text-1" data-fill-palette-color="secondary" id="text-1"></path></svg></g></svg></g></svg></g></svg></g><g transform="matrix(1,0,0,1,61.97989084181359,0)"><svg viewBox="0 0 34.43213730215946 34.43213730215946" height="34.43213730215946" width="34.43213730215946"><g><svg></svg></g><g id="icon-0"><svg viewBox="0 0 34.43213730215946 34.43213730215946" height="34.43213730215946" width="34.43213730215946"><g><path d="M0 17.216c0-9.508 7.708-17.216 17.216-17.216 9.508 0 17.216 7.708 17.216 17.216 0 9.508-7.708 17.216-17.216 17.216-9.508 0-17.216-7.708-17.216-17.216zM17.216 33.456c8.969 0 16.239-7.271 16.24-16.24 0-8.969-7.271-16.239-16.24-16.239-8.969 0-16.239 7.271-16.239 16.239 0 8.969 7.271 16.239 16.239 16.24z" data-fill-palette-color="tertiary" fill="#0074d9" stroke="transparent"></path></g><g transform="matrix(1,0,0,1,7.780104890752616,8.605486037617522)"><svg viewBox="0 0 18.87192752065423 17.221165226924416" height="17.221165226924416" width="18.87192752065423"><g><svg xmlns="http://www.w3.org/2000/svg" data-name="Layer 1" viewBox="2.1 6.279802623035597 95.80000000000001 87.42019737696441" x="0" y="0" height="17.221165226924416" width="18.87192752065423" class="icon-dxe-0" data-fill-palette-color="accent" id="dxe-0"><g data-name="Group" fill="#0074d9" data-fill-palette-color="accent"><path data-name="Compound Path" d="M94.9 47H71.4V42.4H72A3 3 0 0 0 74.3 41.3L79.8 35A3 3 0 0 0 79.5 30.8L51.7 7A3 3 0 0 0 47.8 7L20 30.7A3 3 0 0 0 19.7 34.9L25.2 41.4A3 3 0 0 0 27.2 42.4H28.1V47H5.1A3 3 0 0 0 2.1 50V90.7A3 3 0 0 0 5.1 93.7H94.9A3 3 0 0 0 97.9 90.7V50A3 3 0 0 0 94.9 47M28.1 87.7H8.1V53H28.1ZM57.3 87.7H42.2V70.7H57.4ZM50 57.3A7.9 7.9 0 1 1 57.9 49.4 7.9 7.9 0 0 1 50 57.3M51.7 18.2A3 3 0 0 0 47.8 18.2L27.8 35.3 26.2 33.4 49.8 13.2 73.3 33.3 71.7 35.2ZM91.9 87.7H71.4V53H91.9Z" fill="#0074d9" data-fill-palette-color="accent"></path><rect data-name="Path" x="10.5" y="57.7" width="6" height="9.8" fill="#0074d9" data-fill-palette-color="accent"></rect><rect data-name="Path" x="19.5" y="57.7" width="6" height="9.8" fill="#0074d9" data-fill-palette-color="accent"></rect><rect data-name="Path" x="10.5" y="72.4" width="6" height="9.8" fill="#0074d9" data-fill-palette-color="accent"></rect><rect data-name="Path" x="19.5" y="72.4" width="6" height="9.8" fill="#0074d9" data-fill-palette-color="accent"></rect><rect data-name="Path" x="74.3" y="57.7" width="6" height="9.8" fill="#0074d9" data-fill-palette-color="accent"></rect><rect data-name="Path" x="83.3" y="57.7" width="6" height="9.8" fill="#0074d9" data-fill-palette-color="accent"></rect><rect data-name="Path" x="74.3" y="72.4" width="6" height="9.8" fill="#0074d9" data-fill-palette-color="accent"></rect><rect data-name="Path" x="83.3" y="72.4" width="6" height="9.8" fill="#0074d9" data-fill-palette-color="accent"></rect></g></svg></g></svg></g></svg></g></svg></g><g></g></svg></g></svg></g><g id="text-0"><path d="M27.47 97.66l-2.433 8.166-18.557-5.531 2.41-8.087 1.3 0.388-1.994 4.457c-0.348 0.783-0.564 1.316-0.647 1.598v0l8.086 2.41c0.068-0.23 0.206-0.786 0.412-1.668v0l1.028-4.423 1.222 0.364-1.561 4.264c-0.311 0.851-0.501 1.392-0.569 1.622v0l8.875 2.645c0.094-0.315 0.207-0.886 0.339-1.712v0l0.789-4.88z" fill="#0074d9" data-fill-palette-color="accent"></path><path d="M32.927 86.175l-2.647 5.478-17.435-8.424 2.647-5.479c0.93-1.925 2.105-3.427 3.524-4.507 1.423-1.07 2.977-1.689 4.664-1.855 1.686-0.167 3.402 0.172 5.148 1.015v0c1.746 0.844 3.078 1.978 3.995 3.402 0.917 1.425 1.399 3.027 1.444 4.808 0.036 1.783-0.41 3.637-1.34 5.562zM16.093 78.041v0l-1.829 3.785 16.233 7.843 1.828-3.785c1.163-2.406 1.359-4.632 0.59-6.678-0.772-2.04-2.439-3.678-4.999-4.915v0c-2.554-1.234-4.873-1.521-6.957-0.862-2.081 0.669-3.703 2.206-4.866 4.612z" fill="#0074d9" data-fill-palette-color="accent"></path><path d="M35.035 67.149l-9.328-6.919 1.12-1.511 9.378 6.956c1.789 1.327 3.51 1.921 5.165 1.784 1.655-0.138 3.076-1.007 4.264-2.609v0c0.747-1.007 1.2-2.032 1.359-3.074 0.164-1.038 0.051-2.018-0.341-2.94-0.397-0.926-1.059-1.707-1.985-2.343v0l-10.718-7.374 1.12-1.511 10.161 8.126c1.733 1.379 2.687 2.91 2.863 4.593 0.18 1.678-0.418 3.444-1.793 5.299v0c-1.482 1.998-3.225 3.128-5.228 3.39-1.994 0.261-4.006-0.361-6.037-1.867z" fill="#0074d9" data-fill-palette-color="accent"></path><path d="M65.553 42.256l0.129-0.118 1.007 1.363c-0.232 0.508-0.566 1.073-1.002 1.693-0.431 0.616-0.897 1.213-1.399 1.791-0.501 0.569-0.97 1.052-1.405 1.449v0c-1.104 1.007-2.297 1.752-3.58 2.236-1.278 0.48-2.574 0.706-3.888 0.68-1.313-0.026-2.58-0.313-3.802-0.859-1.221-0.546-2.317-1.351-3.286-2.414v0c-0.97-1.063-1.67-2.228-2.102-3.494-0.432-1.266-0.6-2.555-0.506-3.864 0.094-1.31 0.439-2.58 1.033-3.809 0.6-1.233 1.452-2.354 2.556-3.36v0c0.451-0.411 0.987-0.835 1.608-1.272 0.622-0.447 1.249-0.852 1.882-1.216 0.638-0.368 1.211-0.645 1.718-0.83v0l0.941 1.229-0.129 0.118c-0.921-0.004-1.877 0.219-2.869 0.668-0.986 0.454-1.887 1.053-2.701 1.797v0c-1.225 1.117-2.043 2.392-2.453 3.823-0.4 1.432-0.388 2.909 0.036 4.432 0.43 1.518 1.277 2.971 2.543 4.359v0c1.279 1.402 2.653 2.385 4.12 2.946 1.468 0.553 2.931 0.697 4.389 0.435 1.453-0.268 2.799-0.967 4.04-2.099v0c0.926-0.845 1.651-1.779 2.173-2.803 0.527-1.028 0.843-1.989 0.947-2.881z" fill="#0074d9" data-fill-palette-color="accent"></path><path d="M71.758 41.053l-1.707 1.071-3.983-20.359 1.455-0.912 16.591 12.452-1.715 1.076-7.721-5.871-5.321 3.337zM67.138 22.793l-0.14 0.087 2.167 8.311 4.946-3.101z" fill="#0074d9" data-fill-palette-color="accent"></path><path d="M93.356 29.266l-1.721 0.76-7.602-17.204c-0.251 0.111-0.749 0.391-1.494 0.84v0l-4.686 2.823-0.569-1.288 14.779-6.53 0.569 1.288-5.242 1.563c-0.834 0.249-1.379 0.43-1.637 0.544v0z" fill="#0074d9" data-fill-palette-color="accent"></path><path d="M107.26 24.029l-1.789 0.582-5.988-18.415 1.788-0.582z" fill="#0074d9" data-fill-palette-color="accent"></path><path d="M112.235 13.042v0c-0.22-1.401-0.174-2.747 0.137-4.037 0.311-1.29 0.85-2.457 1.616-3.499 0.758-1.048 1.704-1.918 2.837-2.609 1.133-0.691 2.4-1.146 3.802-1.365v0c1.401-0.22 2.747-0.174 4.037 0.137 1.29 0.311 2.457 0.85 3.499 1.616 1.048 0.758 1.918 1.704 2.608 2.837 0.691 1.133 1.146 2.4 1.366 3.801v0c0.22 1.401 0.174 2.747-0.137 4.038-0.311 1.29-0.85 2.457-1.616 3.499-0.758 1.048-1.704 1.918-2.837 2.608-1.133 0.691-2.4 1.146-3.802 1.366v0c-1.401 0.22-2.747 0.174-4.037-0.137-1.29-0.311-2.457-0.85-3.499-1.616-1.048-0.758-1.918-1.704-2.609-2.837-0.691-1.133-1.146-2.4-1.365-3.802zM114.316 12.716v0c0.292 1.862 0.875 3.435 1.749 4.72 0.875 1.292 1.966 2.234 3.273 2.826 1.299 0.587 2.733 0.758 4.304 0.512v0c1.564-0.245 2.877-0.846 3.941-1.804 1.063-0.964 1.813-2.198 2.25-3.702 0.437-1.504 0.511-3.177 0.222-5.018v0c-0.289-1.841-0.87-3.408-1.745-4.7-0.875-1.292-1.966-2.234-3.273-2.826-1.308-0.6-2.743-0.777-4.307-0.532v0c-1.571 0.246-2.881 0.847-3.931 1.802-1.056 0.963-1.806 2.194-2.251 3.692-0.445 1.498-0.522 3.175-0.232 5.03z" fill="#0074d9" data-fill-palette-color="accent"></path><path d="M141.404 19.785l-1.879-0.071 1.433-19.714 0.329 0.012 13.272 17.339 0.164 0.006 0.014-16.446 1.88 0.071-1.444 19.714-0.329-0.012-13.271-17.339-0.165-0.006z" fill="#0074d9" data-fill-palette-color="accent"></path><path d="M187.067 26.423l0.167 0.053-0.68 1.552c-0.556 0.052-1.212 0.044-1.967-0.024-0.748-0.067-1.498-0.173-2.25-0.32-0.743-0.151-1.395-0.316-1.956-0.496v0c-1.423-0.455-2.664-1.117-3.724-1.988-1.053-0.869-1.896-1.879-2.528-3.03-0.632-1.151-1.016-2.393-1.151-3.724-0.136-1.331 0.015-2.682 0.453-4.053v0c0.438-1.371 1.098-2.559 1.981-3.564 0.882-1.006 1.915-1.794 3.097-2.366 1.183-0.572 2.455-0.906 3.817-1.003 1.368-0.095 2.764 0.085 4.187 0.539v0c0.581 0.186 1.216 0.439 1.904 0.76 0.697 0.316 1.361 0.658 1.992 1.025 0.637 0.369 1.163 0.728 1.577 1.076v0l-0.596 1.428-0.167-0.053c-0.456-0.8-1.126-1.518-2.009-2.153-0.885-0.628-1.854-1.11-2.905-1.446v0c-1.58-0.505-3.092-0.578-4.537-0.22-1.441 0.367-2.715 1.114-3.824 2.242-1.102 1.13-1.939 2.589-2.51 4.377v0c-0.578 1.808-0.744 3.488-0.499 5.041 0.253 1.548 0.857 2.889 1.811 4.021 0.957 1.126 2.235 1.944 3.834 2.455v0c1.194 0.382 2.366 0.544 3.513 0.486 1.154-0.056 2.144-0.261 2.97-0.615z" fill="#0074d9" data-fill-palette-color="accent"></path><path d="M194.772 22.198v0c0.678-1.246 1.532-2.287 2.563-3.122 1.031-0.835 2.168-1.434 3.41-1.796 1.239-0.371 2.519-0.487 3.839-0.346 1.32 0.141 2.603 0.55 3.848 1.227v0c1.246 0.678 2.287 1.532 3.122 2.564 0.835 1.031 1.434 2.168 1.796 3.41 0.371 1.239 0.487 2.519 0.346 3.838-0.141 1.32-0.55 2.603-1.227 3.849v0c-0.678 1.246-1.532 2.287-2.564 3.122-1.031 0.835-2.168 1.434-3.41 1.796-1.239 0.371-2.519 0.487-3.838 0.346-1.32-0.141-2.603-0.55-3.849-1.227v0c-1.246-0.678-2.287-1.532-3.122-2.564-0.835-1.031-1.434-2.168-1.796-3.41-0.371-1.239-0.487-2.519-0.346-3.838 0.141-1.32 0.55-2.603 1.228-3.849zM196.623 23.204v0c-0.9 1.655-1.394 3.259-1.482 4.811-0.09 1.558 0.203 2.969 0.88 4.234 0.674 1.256 1.71 2.263 3.106 3.023v0c1.391 0.756 2.799 1.078 4.226 0.964 1.43-0.119 2.776-0.643 4.037-1.572 1.262-0.929 2.337-2.211 3.228-3.849v0c0.89-1.637 1.381-3.235 1.471-4.792 0.09-1.558-0.203-2.969-0.88-4.234-0.674-1.271-1.706-2.285-3.096-3.041v0c-1.397-0.759-2.802-1.079-4.217-0.959-1.424 0.123-2.768 0.644-4.032 1.563-1.264 0.919-2.345 2.203-3.241 3.852z" fill="#0074d9" data-fill-palette-color="accent"></path><path d="M213.012 44.451l11.863-15.305 1.487 1.153-11.523 14.866c0.276 0.214 0.746 0.509 1.408 0.883v0l4.054 2.271-0.863 1.113z" fill="#0074d9" data-fill-palette-color="accent"></path><path d="M223.57 53.598l13.566-13.817 1.343 1.318-13.178 13.421c0.249 0.245 0.681 0.592 1.296 1.042v0l3.76 2.727-0.986 1.005z" fill="#0074d9" data-fill-palette-color="accent"></path><path d="M238.309 70.551l-5.333-6.645 15.103-12.119 5.281 6.581-1.058 0.85-2.533-4.175c-0.446-0.731-0.762-1.212-0.946-1.442v0l-6.581 5.281c0.15 0.187 0.53 0.616 1.138 1.288v0l3.053 3.361-0.994 0.798-2.62-3.709c-0.523-0.74-0.86-1.203-1.01-1.39v0l-7.223 5.795c0.206 0.257 0.611 0.674 1.215 1.252v0l3.566 3.425z" fill="#0074d9" data-fill-palette-color="accent"></path><path d="M256.848 84.638l-2.502-4.465 0.574-0.322 3.421 6.106-6.564 3.678c-1.157-0.326-2.244-0.907-3.261-1.743-1.018-0.836-1.895-1.911-2.633-3.225v0c-0.757-1.351-1.236-2.724-1.436-4.12-0.197-1.39-0.133-2.733 0.192-4.031 0.316-1.3 0.871-2.483 1.664-3.548 0.796-1.074 1.822-1.963 3.077-2.667v0c1.255-0.703 2.549-1.114 3.881-1.232 1.323-0.121 2.621 0.024 3.895 0.434 1.277 0.4 2.456 1.047 3.538 1.94 1.085 0.9 2.007 2.025 2.764 3.377v0c0.325 0.58 0.636 1.234 0.934 1.962 0.304 0.725 0.563 1.44 0.778 2.145 0.214 0.705 0.348 1.329 0.401 1.872v0l-1.425 0.633-0.08-0.143c0.204-0.954 0.199-1.965-0.014-3.032-0.219-1.063-0.611-2.1-1.177-3.111v0c-0.847-1.512-1.932-2.648-3.253-3.408-1.33-0.763-2.789-1.116-4.375-1.059-1.586 0.056-3.199 0.543-4.837 1.461v0c-1.644 0.921-2.901 2.042-3.771 3.361-0.876 1.324-1.337 2.752-1.381 4.285-0.042 1.524 0.361 3.042 1.208 4.554v0c0.522 0.933 1.135 1.724 1.838 2.375 0.702 0.651 1.458 1.131 2.267 1.44v0z" fill="#0074d9" data-fill-palette-color="accent"></path><path d="M255.139 105.531l-2.935-7.999 18.179-6.669 2.906 7.921-1.273 0.468-1.069-4.764c-0.19-0.835-0.335-1.391-0.437-1.669v0l-7.922 2.907c0.083 0.225 0.305 0.753 0.668 1.583v0l1.822 4.159-1.197 0.439-1.3-4.35c-0.26-0.868-0.431-1.415-0.514-1.64v0l-8.694 3.189c0.113 0.309 0.364 0.833 0.752 1.574v0l2.287 4.384z" fill="#0074d9" data-fill-palette-color="accent"></path><path d="M8.914 188.235l-2.434-8.165 18.558-5.531 2.41 8.087-1.301 0.388-0.772-4.822c-0.138-0.846-0.248-1.41-0.332-1.692v0l-8.087 2.41c0.068 0.23 0.258 0.77 0.569 1.622v0l1.561 4.264-1.222 0.364-1.028-4.423c-0.206-0.882-0.343-1.439-0.412-1.668v0l-8.875 2.645c0.094 0.315 0.312 0.854 0.654 1.617v0l2.011 4.517z" fill="#0074d9" data-fill-palette-color="accent"></path><path d="M15.492 202.615l-2.647-5.479 17.435-8.425 2.648 5.479c0.93 1.925 1.377 3.779 1.34 5.562-0.046 1.78-0.527 3.382-1.444 4.807-0.917 1.425-2.249 2.559-3.995 3.403v0c-1.746 0.844-3.462 1.182-5.148 1.015-1.686-0.167-3.241-0.786-4.664-1.856-1.42-1.08-2.594-2.582-3.525-4.507zM32.326 194.481v0l-1.829-3.785-16.232 7.843 1.829 3.785c1.163 2.406 2.784 3.944 4.865 4.612 2.078 0.663 4.397 0.375 6.958-0.862v0c2.554-1.234 4.221-2.873 4.999-4.915 0.769-2.046 0.573-4.272-0.59-6.678z" fill="#0074d9" data-fill-palette-color="accent"></path><path d="M31.931 215.518l9.328-6.919 1.121 1.51-9.378 6.956c-1.789 1.327-2.857 2.802-3.205 4.426-0.348 1.623 0.071 3.236 1.259 4.837v0c0.747 1.007 1.596 1.738 2.548 2.193 0.946 0.459 1.917 0.634 2.912 0.527 1.001-0.111 1.941-0.518 2.818-1.221v0l10.167-8.117 1.121 1.51-10.724 7.367c-1.822 1.258-3.565 1.727-5.227 1.407-1.658-0.314-3.175-1.399-4.55-3.254v0c-1.482-1.998-2.058-3.993-1.728-5.986 0.328-1.984 1.508-3.729 3.538-5.236z" fill="#0074d9" data-fill-palette-color="accent"></path><path d="M55.705 248.907l0.129 0.117-1.265 1.128c-0.527-0.184-1.12-0.465-1.778-0.842-0.653-0.373-1.29-0.782-1.911-1.229-0.612-0.447-1.136-0.869-1.572-1.267v0c-1.104-1.007-1.955-2.127-2.555-3.36-0.595-1.229-0.939-2.498-1.034-3.808-0.094-1.31 0.075-2.598 0.506-3.865 0.432-1.266 1.132-2.431 2.102-3.494v0c0.97-1.063 2.065-1.868 3.287-2.414 1.221-0.546 2.489-0.832 3.802-0.858 1.313-0.026 2.609 0.2 3.887 0.679 1.283 0.484 2.477 1.23 3.58 2.237v0c0.451 0.411 0.922 0.906 1.415 1.484 0.502 0.578 0.963 1.166 1.383 1.763 0.425 0.601 0.754 1.146 0.985 1.635v0l-1.138 1.049-0.129-0.117c-0.081-0.918-0.391-1.849-0.929-2.795-0.543-0.94-1.222-1.782-2.037-2.526v0c-1.225-1.117-2.569-1.815-4.032-2.091-1.463-0.267-2.933-0.12-4.41 0.442-1.473 0.567-2.842 1.544-4.107 2.932v0c-1.279 1.402-2.131 2.86-2.556 4.374-0.415 1.513-0.425 2.983-0.03 4.41 0.4 1.422 1.22 2.699 2.46 3.83v0c0.926 0.845 1.923 1.481 2.991 1.907 1.072 0.431 2.058 0.657 2.956 0.679z" fill="#0074d9" data-fill-palette-color="accent"></path><path d="M61.471 255.716l-1.706-1.07 16.591-12.452 1.454 0.912-3.983 20.358-1.715-1.075 1.922-9.507-5.321-3.337zM75.896 243.604l-0.139-0.087-6.537 5.569 4.946 3.102z" fill="#0074d9" data-fill-palette-color="accent"></path><path d="M85.529 268.81l-1.72-0.76 7.602-17.204c-0.251-0.111-0.793-0.291-1.627-0.539v0l-5.242-1.564 0.569-1.288 14.779 6.531-0.57 1.288-4.685-2.823c-0.745-0.449-1.247-0.731-1.504-0.845v0z" fill="#0074d9" data-fill-palette-color="accent"></path><path d="M101.272 274.75l-1.789-0.582 5.988-18.414 1.789 0.581z" fill="#0074d9" data-fill-palette-color="accent"></path><path d="M112.235 267.322v0c0.22-1.401 0.675-2.669 1.366-3.802 0.691-1.133 1.56-2.079 2.608-2.837 1.042-0.766 2.209-1.305 3.499-1.615 1.29-0.311 2.636-0.357 4.037-0.137v0c1.401 0.22 2.669 0.675 3.802 1.365 1.133 0.691 2.079 1.56 2.837 2.609 0.766 1.042 1.305 2.209 1.616 3.499 0.311 1.29 0.357 2.636 0.137 4.037v0c-0.22 1.401-0.675 2.669-1.366 3.802-0.691 1.133-1.56 2.079-2.608 2.837-1.042 0.766-2.209 1.305-3.499 1.615-1.29 0.311-2.636 0.357-4.037 0.138v0c-1.401-0.22-2.669-0.675-3.802-1.366-1.133-0.691-2.079-1.56-2.837-2.609-0.766-1.042-1.305-2.209-1.616-3.499-0.311-1.29-0.357-2.636-0.137-4.037zM114.317 267.648v0c-0.292 1.862-0.218 3.538 0.221 5.029 0.438 1.497 1.188 2.728 2.251 3.692 1.057 0.956 2.371 1.557 3.941 1.804v0c1.564 0.245 2.998 0.075 4.304-0.512 1.307-0.593 2.398-1.538 3.274-2.837 0.876-1.298 1.459-2.868 1.747-4.709v0c0.289-1.841 0.214-3.511-0.224-5.008-0.438-1.497-1.188-2.728-2.251-3.693-1.062-0.971-2.374-1.579-3.938-1.823v0c-1.571-0.246-3.002-0.075-4.294 0.513-1.3 0.594-2.391 1.536-3.273 2.826-0.882 1.291-1.468 2.863-1.758 4.718z" fill="#0074d9" data-fill-palette-color="accent"></path><path d="M142.135 279.929l-1.88 0.071-0.057-19.766 0.329-0.013 14.541 16.288 0.165-0.006-1.227-16.4 1.88-0.071 0.047 19.767-0.329 0.012-14.541-16.288-0.164 0.006z" fill="#0074d9" data-fill-palette-color="accent"></path><path d="M191.516 267.864l0.166-0.054 0.347 1.659c-0.423 0.365-0.962 0.739-1.617 1.121-0.648 0.38-1.321 0.728-2.018 1.044-0.693 0.308-1.32 0.551-1.882 0.731v0c-1.423 0.455-2.818 0.634-4.186 0.539-1.362-0.097-2.634-0.432-3.817-1.003-1.183-0.572-2.215-1.36-3.097-2.366-0.882-1.006-1.543-2.194-1.981-3.564v0c-0.438-1.371-0.589-2.721-0.453-4.053 0.136-1.331 0.52-2.572 1.151-3.723 0.632-1.151 1.474-2.162 2.528-3.031 1.06-0.871 2.301-1.534 3.723-1.988v0c0.581-0.186 1.245-0.347 1.993-0.486 0.752-0.147 1.491-0.253 2.217-0.32 0.733-0.069 1.369-0.082 1.909-0.038v0l0.342 1.509-0.167 0.054c-0.836-0.387-1.798-0.584-2.885-0.589-1.086 0.002-2.154 0.17-3.205 0.506v0c-1.58 0.505-2.854 1.322-3.824 2.452-0.961 1.134-1.566 2.482-1.815 4.044-0.243 1.559-0.078 3.233 0.493 5.022v0c0.578 1.808 1.417 3.274 2.516 4.396 1.104 1.115 2.374 1.856 3.808 2.225 1.432 0.362 2.948 0.288 4.547-0.222v0c1.194-0.382 2.242-0.929 3.144-1.642 0.908-0.715 1.596-1.456 2.063-2.223z" fill="#0074d9" data-fill-palette-color="accent"></path><path d="M194.771 258.167v0c-0.678-1.246-1.087-2.529-1.227-3.849-0.141-1.32-0.025-2.599 0.346-3.839 0.362-1.242 0.961-2.379 1.796-3.41 0.835-1.031 1.876-1.886 3.122-2.563v0c1.246-0.678 2.529-1.087 3.848-1.227 1.32-0.141 2.599-0.025 3.839 0.346 1.242 0.362 2.379 0.961 3.41 1.796 1.031 0.835 1.886 1.876 2.563 3.121v0c0.678 1.246 1.087 2.529 1.228 3.849 0.141 1.32 0.025 2.599-0.346 3.839-0.362 1.242-0.961 2.379-1.796 3.41-0.835 1.031-1.876 1.886-3.122 2.563v0c-1.246 0.678-2.529 1.087-3.849 1.227-1.32 0.141-2.599 0.025-3.838-0.346-1.242-0.362-2.379-0.961-3.41-1.796-1.031-0.835-1.886-1.876-2.564-3.121zM196.622 257.16v0c0.9 1.655 1.978 2.941 3.233 3.858 1.258 0.922 2.602 1.443 4.032 1.562 1.421 0.117 2.829-0.205 4.226-0.964v0c1.391-0.756 2.426-1.764 3.106-3.023 0.677-1.265 0.969-2.679 0.875-4.243-0.094-1.564-0.586-3.164-1.477-4.801v0c-0.89-1.637-1.965-2.917-3.222-3.84-1.258-0.922-2.602-1.443-4.033-1.562-1.433-0.125-2.845 0.19-4.235 0.946v0c-1.397 0.759-2.429 1.765-3.097 3.018-0.671 1.262-0.964 2.673-0.88 4.234 0.084 1.561 0.575 3.166 1.472 4.815z" fill="#0074d9" data-fill-palette-color="accent"></path><path d="M224.874 251.218l-11.862-15.305 1.486-1.152 11.523 14.866c0.276-0.214 0.679-0.595 1.207-1.144v0l3.21-3.358 0.862 1.112z" fill="#0074d9" data-fill-palette-color="accent"></path><path d="M237.136 240.583l-13.567-13.816 1.342-1.318 13.178 13.421c0.249-0.245 0.605-0.67 1.066-1.277v0l2.795-3.71 0.987 1.004z" fill="#0074d9" data-fill-palette-color="accent"></path><path d="M253.411 221.932l-5.333 6.646-15.103-12.119 5.281-6.582 1.059 0.85-3.527 3.376c-0.617 0.594-1.018 1.006-1.203 1.236v0l6.582 5.281c0.15-0.187 0.487-0.65 1.01-1.39v0l2.62-3.709 0.994 0.798-3.053 3.361c-0.609 0.671-0.988 1.1-1.138 1.288v0l7.222 5.795c0.206-0.257 0.525-0.742 0.959-1.457v0l2.572-4.223z" fill="#0074d9" data-fill-palette-color="accent"></path><path d="M257.708 196.209l-2.502 4.465-0.574-0.321 3.421-6.106 6.564 3.677c0.326 1.157 0.398 2.387 0.217 3.692-0.181 1.304-0.64 2.614-1.377 3.929v0c-0.757 1.351-1.678 2.476-2.763 3.376-1.082 0.894-2.261 1.541-3.538 1.941-1.274 0.409-2.572 0.554-3.895 0.433-1.332-0.118-2.626-0.529-3.881-1.232v0c-1.255-0.703-2.281-1.592-3.077-2.666-0.793-1.065-1.348-2.248-1.665-3.548-0.325-1.298-0.389-2.641-0.192-4.031 0.201-1.396 0.68-2.769 1.437-4.12v0c0.325-0.58 0.72-1.187 1.185-1.821 0.46-0.638 0.934-1.232 1.423-1.783 0.489-0.551 0.952-0.991 1.388-1.32v0l1.283 0.884-0.08 0.144c-0.92 0.325-1.78 0.856-2.578 1.595-0.793 0.742-1.472 1.618-2.038 2.628v0c-0.847 1.512-1.25 3.03-1.209 4.554 0.044 1.533 0.505 2.961 1.381 4.284 0.876 1.324 2.134 2.444 3.772 3.362v0c1.644 0.921 3.256 1.408 4.836 1.461 1.586 0.056 3.045-0.297 4.375-1.059 1.321-0.76 2.405-1.896 3.253-3.409v0c0.522-0.933 0.878-1.868 1.067-2.807 0.188-0.939 0.203-1.834 0.043-2.685v0z" fill="#0074d9" data-fill-palette-color="accent"></path><path d="M273.317 181.503l-2.935 7.999-18.179-6.669 2.906-7.922 1.274 0.467-2.265 4.326c-0.396 0.76-0.644 1.278-0.746 1.555v0l7.922 2.906c0.083-0.225 0.254-0.772 0.514-1.64v0l1.301-4.351 1.196 0.439-1.821 4.16c-0.363 0.83-0.586 1.358-0.669 1.583v0l8.694 3.189c0.113-0.309 0.261-0.871 0.444-1.687v0l1.09-4.822z" fill="#0074d9" data-fill-palette-color="accent"></path><path d="M2.95 140.183c0-4.167 3.378-7.545 7.544-7.545 4.167 0 7.545 3.378 7.545 7.545 0 4.167-3.378 7.545-7.545 7.544-4.167 0-7.545-3.378-7.544-7.544z" fill="#0074d9" data-fill-palette-color="accent"></path><path d="M261.961 140.183c0-4.167 3.378-7.545 7.544-7.545 4.167 0 7.545 3.378 7.545 7.545 0 4.167-3.378 7.545-7.545 7.544-4.167 0-7.545-3.378-7.544-7.544z" fill="#0074d9" data-fill-palette-color="accent"></path></g><g id="text-1"></g></svg></g><defs></defs></svg><rect width="280" height="280" fill="none" stroke="none" visibility="hidden"></rect></g></svg></g></svg>